<?xml version="1.0" encoding="UTF-8"?>
<svg id="Artwork" xmlns="http://www.w3.org/2000/svg" viewBox="0 0 171 192.85">
  <defs>
    <style>
      .cls-1 {
        fill: none;
        stroke: #00050b;
        stroke-linecap: round;
        stroke-linejoin: round;
        stroke-width: 5px;
      }

      .cls-2 {
        fill: #00050b;
      }
    </style>
  </defs>
  <path class="cls-1" d="M62.29,176.06l24.66,14.29,58.15-32.98c3.88-2.2,6.1-6.47,5.67-10.9l-3.93-44.3c.35-2.33-1.35-4.46-3.7-4.63l-11.71-.89c-2.05-.15-3.88,1.25-4.28,3.26v45.17"/>
  <path class="cls-1" d="M105.37,107.79c2.43,1,11.6,4.95,14.45,6.31"/>
  <path class="cls-1" d="M65.77,106.6c-11.38,4.45-35.33,15.16-35.33,26.38v18.56c0,3.23,2.43,8.25,5.85,10.35l14.17,8.51"/>
  <path class="cls-1" d="M61.04,82.07l-6.29-6.29c-.78-.78-1.22-1.84-1.22-2.94v-4.73c0-1.65.97-3.14,2.48-3.8h0c.83-.36,1.75-.45,2.63-.24l2.4.56"/>
  <path class="cls-1" d="M61.04,66.47v-12.65l-2.38-3.87c-1.68-2.74-1.15-6.29,1.27-8.41l9.21-8.09c4.17-3.66,9.53-5.68,15.08-5.68h0"/>
  <path class="cls-1" d="M107.12,74.6v10.27c0,2.16-.86,4.24-2.39,5.77l-6.61,6.61c-3.71,3.71-8.74,5.79-13.98,5.79h-.2s.27,0,.27,0h-.2c-5.24,0-10.27-2.08-13.98-5.79l-6.61-6.61c-1.53-1.53-2.39-3.61-2.39-5.77v-11.42"/>
  <path class="cls-1" d="M83.94,27.77h0c5.55,0,10.91,2.02,15.08,5.68l9.21,8.09c2.42,2.12,2.95,5.67,1.27,8.41l-2.38,3.87v12.65"/>
  <path class="cls-1" d="M107.12,82.07l6.29-6.29c.78-.78,1.22-1.84,1.22-2.94v-4.73c0-1.65-.97-3.14-2.48-3.8h0c-.83-.36-1.75-.45-2.63-.24l-2.4.56"/>
  <line class="cls-1" x1="100.12" y1="53.81" x2="107.12" y2="53.81"/>
  <line class="cls-1" x1="61.04" y1="53.81" x2="91.85" y2="53.81"/>
  <line class="cls-1" x1="77.39" y1="60.47" x2="107.12" y2="60.47"/>
  <line class="cls-1" x1="61.04" y1="60.47" x2="70.05" y2="60.47"/>
  <path class="cls-1" d="M61.34,66.47l1.25.91c2.08,1.51,4.58,2.33,7.15,2.33h29.11c3.06,0,6.01-1.16,8.26-3.24h0"/>
  <circle class="cls-1" cx="74.74" cy="73.49" r="3.57"/>
  <circle class="cls-1" cx="94.38" cy="73.49" r="3.57"/>
  <path class="cls-1" d="M72.91,106.6v2.86s1.83,7.36,11.98,7.36,10.74-8.36,10.74-8.36v-1.87"/>
  <line class="cls-1" x1="55.02" y1="112.11" x2="115.6" y2="174.1"/>
  <line class="cls-1" x1="45.05" y1="118.58" x2="105.37" y2="178.9"/>
  <line class="cls-1" x1="50.46" y1="170.39" x2="50.46" y2="153.76"/>
  <path class="cls-1" d="M5.4,62.47v77.47l15.16,10.09"/>
  <path class="cls-1" d="M162.72,146.74l5.78-3.64V48.63L100.63,9.31"/>
  <g>
    <path class="cls-2" d="M0,41.99l4.3-2.35,8.52,6.91.17-.09-1.21-10.9,4.3-2.35,7.86,14.38-3.38,1.85-4.83-8.83-.12.07,1.32,10.63-2.16,1.18-8.26-6.9-.12.07,4.85,8.88-3.38,1.85L0,41.99Z"/>
    <path class="cls-2" d="M29.25,44.92c-.69.38-1.36.59-2.02.65-.66.06-1.27-.06-1.83-.37s-1.04-.81-1.43-1.52c-.33-.6-.5-1.16-.51-1.69-.01-.53.09-1.02.32-1.48.23-.46.55-.89.96-1.28.41-.4.88-.77,1.4-1.11.58-.39,1.04-.72,1.38-.99.34-.27.56-.51.67-.72.11-.21.1-.43-.02-.65l-.02-.04c-.2-.36-.47-.57-.83-.63-.36-.06-.74.02-1.17.25-.45.25-.77.54-.93.89-.17.35-.2.71-.08,1.1l-3.23,1.62c-.27-.71-.34-1.43-.24-2.16.11-.73.42-1.43.95-2.1.52-.67,1.27-1.27,2.23-1.8.69-.38,1.37-.64,2.03-.8.67-.16,1.3-.2,1.9-.13.6.07,1.14.26,1.62.58.48.31.88.76,1.19,1.33l4.01,7.33-3.23,1.76-.82-1.5-.08.05c0,.47-.07.91-.23,1.33-.16.42-.4.8-.74,1.14-.33.34-.75.65-1.25.93ZM29.08,42.09c.37-.2.66-.46.88-.77.22-.31.34-.65.37-1.01.03-.36-.05-.72-.24-1.07l-.56-1.02c-.07.1-.16.22-.28.33s-.25.24-.39.37c-.14.13-.29.25-.45.38s-.31.24-.46.35c-.29.23-.53.46-.7.69-.17.23-.26.47-.29.7-.03.24.03.47.15.71.2.36.47.56.83.6s.73-.04,1.13-.25Z"/>
    <path class="cls-2" d="M43.01,27.43l-3.11,1.81c-.16-.21-.35-.36-.59-.45s-.5-.13-.79-.11-.58.12-.89.29c-.4.22-.69.48-.88.79-.19.31-.21.6-.06.87.11.21.29.35.56.41.26.06.64.01,1.15-.14l2.29-.74c1.19-.38,2.18-.48,2.96-.29.79.19,1.4.68,1.83,1.46.4.74.53,1.5.4,2.29-.13.78-.49,1.53-1.08,2.24s-1.36,1.33-2.32,1.86c-1.54.84-2.93,1.19-4.16,1.04-1.23-.15-2.21-.72-2.91-1.72l3.34-1.94c.29.35.65.55,1.07.58s.88-.08,1.37-.35c.44-.24.75-.52.94-.83.19-.31.21-.61.06-.88-.14-.24-.35-.38-.64-.41s-.68.03-1.18.19l-2.08.67c-1.19.39-2.19.47-3.01.23s-1.45-.78-1.9-1.6c-.4-.72-.54-1.44-.44-2.17.11-.72.45-1.42,1.01-2.08.57-.66,1.34-1.26,2.31-1.79,1.46-.8,2.78-1.12,3.95-.97s2.1.73,2.77,1.75Z"/>
    <path class="cls-2" d="M54.37,21.22l-3.11,1.81c-.16-.21-.35-.36-.59-.45-.24-.1-.5-.13-.79-.11s-.58.12-.89.29c-.4.22-.69.48-.88.79-.19.31-.21.6-.06.87.11.21.3.35.56.41.26.06.64.01,1.15-.14l2.29-.74c1.19-.38,2.18-.48,2.96-.29s1.4.68,1.83,1.46c.4.74.53,1.5.4,2.29-.13.79-.49,1.53-1.08,2.24s-1.36,1.33-2.32,1.86c-1.54.84-2.93,1.19-4.16,1.04s-2.21-.72-2.91-1.72l3.34-1.94c.29.35.65.55,1.07.58s.88-.08,1.37-.35c.44-.24.75-.52.94-.83.19-.31.21-.61.06-.88-.14-.24-.35-.38-.64-.41s-.68.03-1.18.19l-2.08.67c-1.19.39-2.19.47-3.01.23s-1.45-.78-1.9-1.6c-.4-.72-.54-1.44-.44-2.17.11-.72.45-1.42,1.01-2.08.57-.66,1.34-1.26,2.31-1.79,1.46-.8,2.78-1.12,3.95-.97s2.1.73,2.77,1.75Z"/>
    <path class="cls-2" d="M55.56,14.66c-.49.27-.99.33-1.51.2-.52-.13-.91-.42-1.15-.88-.25-.45-.28-.93-.11-1.44s.5-.9.98-1.16c.49-.27.99-.33,1.51-.2.52.13.9.43,1.15.88.25.45.28.93.12,1.44-.17.51-.49.89-.98,1.16ZM60.42,27.64l-5.89-10.78,3.43-1.88,5.89,10.78-3.43,1.88Z"/>
    <path class="cls-2" d="M66.02,24.58l-5.89-10.78,3.26-1.78,1.08,1.98.12-.06c-.13-.78-.04-1.5.29-2.17.33-.67.86-1.21,1.6-1.61.75-.41,1.49-.57,2.24-.48.74.09,1.36.42,1.86.99l.11-.06c-.15-.75-.04-1.48.34-2.19.37-.71.96-1.28,1.75-1.71,1.02-.56,2.03-.68,3.02-.38.99.3,1.8,1.03,2.42,2.16l3.97,7.26-3.43,1.88-3.54-6.47c-.29-.54-.66-.87-1.09-1-.43-.13-.87-.08-1.31.16-.47.26-.76.61-.86,1.07-.1.45-.01.94.27,1.45l3.52,6.44-3.3,1.8-3.56-6.51c-.27-.5-.63-.82-1.06-.96-.43-.14-.87-.09-1.31.15-.3.16-.53.38-.68.65-.15.27-.22.57-.21.9.01.33.12.68.31,1.03l3.49,6.38-3.43,1.88Z"/>
    <path class="cls-2" d="M89.48,12.02c-1.13.62-2.23.92-3.3.89-1.07-.02-2.05-.33-2.94-.93-.89-.6-1.64-1.45-2.25-2.55-.61-1.11-.92-2.2-.94-3.27-.02-1.08.25-2.07.81-2.98.56-.91,1.4-1.67,2.54-2.29,1.13-.62,2.23-.92,3.3-.9,1.07.02,2.05.33,2.94.93.89.6,1.64,1.45,2.25,2.56.6,1.1.92,2.19.93,3.27.02,1.07-.25,2.07-.81,2.98-.56.91-1.4,1.67-2.53,2.29ZM88.08,9.42c.41-.22.69-.54.84-.95.15-.41.17-.88.08-1.41s-.3-1.09-.62-1.68c-.33-.6-.69-1.08-1.09-1.45-.4-.37-.81-.6-1.23-.69-.42-.1-.84-.03-1.25.19-.43.23-.72.56-.87.97-.15.41-.18.89-.09,1.42.09.53.3,1.1.63,1.7.32.59.68,1.07,1.08,1.43.4.37.81.6,1.24.69.43.09.86.02,1.29-.21Z"/>
  </g>
  <path class="cls-1" d="M78.97,90.95l.19.09c3.17,1.54,6.88,1.53,10.05-.02h0"/>
  <g>
    <polyline class="cls-1" points="128.21 87.88 127.16 56.41 152.64 55.56 154.19 102.16"/>
    <polyline class="cls-1" points="135.83 88.88 140.68 79.28 127.16 56.41"/>
  </g>
</svg>